<?xml version="1.0" encoding="UTF-8" standalone="no"?>
<!DOCTYPE svg PUBLIC "-//W3C//DTD SVG 1.1//EN" "http://www.w3.org/Graphics/SVG/1.1/DTD/svg11.dtd">
<!-- Generated by graphviz version 2.40.1 (20161225.0304)
 -->
<!-- Title: G Pages: 1 -->
<svg width="184pt" height="332pt" viewBox="0.00 0.00 183.71 332.00" xmlns="http://www.w3.org/2000/svg" xmlns:xlink="http://www.w3.org/1999/xlink">
<g id="graph0" class="graph" transform="scale(1 1) rotate(0) translate(4 328)">
<title>G</title>
<polygon fill="#ffffff" stroke="transparent" points="-4,4 -4,-328 179.7129,-328 179.7129,4 -4,4"/>
<!-- hello -->
<g id="node1" class="node">
<title>hello</title>
<ellipse fill="none" stroke="#000000" cx="65.7129" cy="-306" rx="30.1958" ry="18"/>
<text text-anchor="middle" x="65.7129" y="-301.8" font-family="Times,serif" font-size="14.00" fill="#000000">hello</text>
</g>
<!-- a -->
<g id="node2" class="node">
<title>a</title>
<ellipse fill="none" stroke="#000000" cx="93.7129" cy="-234" rx="27" ry="18"/>
<text text-anchor="middle" x="93.7129" y="-229.8" font-family="Times,serif" font-size="14.00" fill="#000000">a</text>
</g>
<!-- hello&#45;&gt;a -->
<g id="edge1" class="edge">
<title>hello-&gt;a</title>
<path fill="none" stroke="#000000" d="M72.6342,-288.2022C75.8215,-280.0064 79.6731,-270.1024 83.2072,-261.0145"/>
<polygon fill="#000000" stroke="#000000" points="86.5086,-262.1817 86.8712,-251.593 79.9846,-259.6445 86.5086,-262.1817"/>
</g>
<!-- b -->
<g id="node3" class="node">
<title>b</title>
<ellipse fill="none" stroke="#000000" cx="38.7129" cy="-162" rx="27" ry="18"/>
<text text-anchor="middle" x="38.7129" y="-157.8" font-family="Times,serif" font-size="14.00" fill="#000000">b</text>
</g>
<!-- hello&#45;&gt;b -->
<g id="edge2" class="edge">
<title>hello-&gt;b</title>
<path fill="none" stroke="#000000" d="M62.3479,-288.0535C57.7399,-263.4774 49.4193,-219.1008 43.9812,-190.0974"/>
<polygon fill="#000000" stroke="#000000" points="47.4033,-189.3564 42.1203,-180.1727 40.5232,-190.6465 47.4033,-189.3564"/>
</g>
<!-- c -->
<g id="node4" class="node">
<title>c</title>
<ellipse fill="none" stroke="#000000" cx="148.7129" cy="-90" rx="27" ry="18"/>
<text text-anchor="middle" x="148.7129" y="-85.8" font-family="Times,serif" font-size="14.00" fill="#000000">c</text>
</g>
<!-- hello&#45;&gt;c -->
<g id="edge3" class="edge">
<title>hello-&gt;c</title>
<path fill="none" stroke="#000000" d="M87.9147,-293.4202C102.3565,-283.9811 120.2119,-269.6698 129.7129,-252 152.4627,-209.69 153.405,-152.3173 151.4519,-118.4238"/>
<polygon fill="#000000" stroke="#000000" points="154.9324,-118.0233 150.7399,-108.2933 147.9497,-118.514 154.9324,-118.0233"/>
</g>
<!-- grpc -->
<g id="node5" class="node">
<title>grpc</title>
<ellipse fill="none" stroke="#000000" cx="66.7129" cy="-18" rx="28.3913" ry="18"/>
<text text-anchor="middle" x="66.7129" y="-13.8" font-family="Times,serif" font-size="14.00" fill="#000000">grpc</text>
</g>
<!-- hello&#45;&gt;grpc -->
<g id="edge4" class="edge">
<title>hello-&gt;grpc</title>
<path fill="none" stroke="#000000" d="M51.9431,-289.4603C29.6719,-260.6785 -10.4962,-199.1734 2.7129,-144 11.6787,-106.5506 33.7067,-67.6607 49.4104,-43.1727"/>
<polygon fill="#000000" stroke="#000000" points="52.5236,-44.8077 55.079,-34.5256 46.6694,-40.9699 52.5236,-44.8077"/>
</g>
<!-- a&#45;&gt;b -->
<g id="edge5" class="edge">
<title>a-&gt;b</title>
<path fill="none" stroke="#000000" d="M81.2325,-217.6621C74.2004,-208.4564 65.2782,-196.7764 57.4246,-186.4953"/>
<polygon fill="#000000" stroke="#000000" points="59.9956,-184.0953 51.1438,-178.2733 54.4329,-188.3446 59.9956,-184.0953"/>
</g>
<!-- a&#45;&gt;c -->
<g id="edge6" class="edge">
<title>a-&gt;c</title>
<path fill="none" stroke="#000000" d="M100.457,-216.3428C109.8996,-191.6202 127.148,-146.4608 138.2614,-117.3639"/>
<polygon fill="#000000" stroke="#000000" points="141.6152,-118.3923 141.9136,-107.8017 135.0759,-115.8946 141.6152,-118.3923"/>
</g>
<!-- a&#45;&gt;grpc -->
<g id="edge7" class="edge">
<title>a-&gt;grpc</title>
<path fill="none" stroke="#000000" d="M91.4573,-215.9555C86.7522,-178.3144 75.8612,-91.1867 70.2285,-46.1246"/>
<polygon fill="#000000" stroke="#000000" points="73.6944,-45.6337 68.981,-36.1451 66.7485,-46.502 73.6944,-45.6337"/>
</g>
<!-- b&#45;&gt;c -->
<g id="edge8" class="edge">
<title>b-&gt;c</title>
<path fill="none" stroke="#000000" d="M58.1255,-149.2936C75.4549,-137.9507 101.0446,-121.201 120.6101,-108.3946"/>
<polygon fill="#000000" stroke="#000000" points="122.6742,-111.2267 129.1244,-102.8216 118.8405,-105.3698 122.6742,-111.2267"/>
</g>
<!-- b&#45;&gt;grpc -->
<g id="edge9" class="edge">
<title>b-&gt;grpc</title>
<path fill="none" stroke="#000000" d="M42.2025,-144.0535C46.9812,-119.4774 55.61,-75.1008 61.2495,-46.0974"/>
<polygon fill="#000000" stroke="#000000" points="64.7062,-46.6569 63.1793,-36.1727 57.8349,-45.3208 64.7062,-46.6569"/>
</g>
<!-- c&#45;&gt;grpc -->
<g id="edge10" class="edge">
<title>c-&gt;grpc</title>
<path fill="none" stroke="#000000" d="M132.119,-75.4297C120.415,-65.1531 104.5393,-51.2134 91.3598,-39.6412"/>
<polygon fill="#000000" stroke="#000000" points="93.3873,-36.7637 83.5636,-32.7957 88.7687,-42.0238 93.3873,-36.7637"/>
</g>
</g>
</svg>